# xmcd
#
# Track frame offsets: 
#        150
#        13171
#        36407
#        56397
#        73754
#        91411
#        109456
#        133807
#        145851
#        167978
#        186444
#        200737
#        224934
#        240130
#
# Disc length: 3480 seconds
#
# Revision: 2
# Processed by: cddbd v1.5.2PL0 Copyright (c) Steve Scherf et al.
# Submitted via: ExactAudioCopyFreeDBPlugin 1.0
#
DISCID=e10d960e
DTITLE=The Lady Killers - Black Is Black
DYEAR=2009
DGENRE=Pop
TTITLE0=Black is black
TTITLE1=Somebody to love
TTITLE2=I want to know what love is
TTITLE3=Tumbling dice
TTITLE4=Piece of my heart
TTITLE5=Sweet child o' mine
TTITLE6=Like a prayer
TTITLE7=I am ready
TTITLE8=Telephone line
TTITLE9=Good vibrations
TTITLE10=Old man
TTITLE11=Black is back (disco version)
TTITLE12=Love in an elevator
TTITLE13=You make me feel brand new
EXTD=The Lady Killers are Tina Cross, Suzanne Lynch, Jackie Clarke, Ta
EXTD=isha.
EXTT0=
EXTT1=
EXTT2=
EXTT3=
EXTT4=
EXTT5=
EXTT6=
EXTT7=
EXTT8=
EXTT9=
EXTT10=
EXTT11=
EXTT12=
EXTT13=
PLAYORDER=
